<?xml version="1.0" encoding="UTF-8"?>
<svg width="600" height="250" xmlns="http://www.w3.org/2000/svg">
<style>
.node { fill: #e1f5fe; stroke: #0277bd; stroke-width: 2; }
.node-text { font-family: Arial, sans-serif; font-size: 14px; text-anchor: middle; dominant-baseline: middle; }
.edge { stroke: #424242; stroke-width: 1.5; marker-end: url(#arrowhead); }
.title { font-family: Arial, sans-serif; font-size: 18px; font-weight: bold; text-anchor: middle; }
.layer-line { stroke: #e0e0e0; stroke-width: 1; stroke-dasharray: 5,5; }
</style>
<defs>
<marker id="arrowhead" markerWidth="10" markerHeight="7" refX="9" refY="3.5" orient="auto">
<polygon points="0 0, 10 3.5, 0 7" fill="#424242"/>
</marker>
</defs>
<text x="300" y="25" class="title">Complex DAG (Left-to-Right)</text><line x1="50" y1="100" x2="550" y2="100" class="layer-line" /><text x="15" y="95" class="node-text" style="fill: #757575; font-size: 12px;">Layer 0</text><line x1="50" y1="75" x2="550" y2="75" class="layer-line" /><text x="15" y="70" class="node-text" style="fill: #757575; font-size: 12px;">Layer 1</text><line x1="50" y1="50" x2="550" y2="50" class="layer-line" /><text x="15" y="45" class="node-text" style="fill: #757575; font-size: 12px;">Layer 2</text><line x1="50" y1="75" x2="550" y2="75" class="layer-line" /><text x="15" y="70" class="node-text" style="fill: #757575; font-size: 12px;">Layer 3</text><line x1="50" y1="100" x2="550" y2="100" class="layer-line" /><text x="15" y="95" class="node-text" style="fill: #757575; font-size: 12px;">Layer 4</text><line x1="50" y1="100" x2="150" y2="75" class="edge" /><line x1="50" y1="100" x2="150" y2="125" class="edge" /><line x1="150" y1="75" x2="250" y2="50" class="edge" /><line x1="150" y1="75" x2="250" y2="100" class="edge" /><line x1="150" y1="125" x2="250" y2="100" class="edge" /><line x1="150" y1="125" x2="250" y2="150" class="edge" /><line x1="250" y1="50" x2="350" y2="75" class="edge" /><line x1="250" y1="100" x2="350" y2="75" class="edge" /><line x1="250" y1="100" x2="350" y2="125" class="edge" /><line x1="250" y1="150" x2="350" y2="125" class="edge" /><line x1="350" y1="75" x2="450" y2="100" class="edge" /><line x1="350" y1="125" x2="450" y2="100" class="edge" /><circle cx="350" cy="75" r="20" class="node" /><text x="350" y="75" class="node-text">C1</text><circle cx="250" cy="150" r="20" class="node" /><text x="250" y="150" class="node-text">B3</text><circle cx="50" cy="100" r="20" class="node" /><text x="50" y="100" class="node-text">Root</text><circle cx="250" cy="50" r="20" class="node" /><text x="250" y="50" class="node-text">B1</text><circle cx="150" cy="125" r="20" class="node" /><text x="150" y="125" class="node-text">A2</text><circle cx="150" cy="75" r="20" class="node" /><text x="150" y="75" class="node-text">A1</text><circle cx="350" cy="125" r="20" class="node" /><text x="350" y="125" class="node-text">C2</text><circle cx="450" cy="100" r="20" class="node" /><text x="450" y="100" class="node-text">End</text><circle cx="250" cy="100" r="20" class="node" /><text x="250" y="100" class="node-text">B2</text><text x="10" y="240" class="node-text" style="fill: #757575; font-size: 12px;">Nodes: 9 | Layers: 5 | Size: 500×150</text></svg>