<?xml version="1.0" encoding="UTF-8"?>
<svg width="190" height="400" xmlns="http://www.w3.org/2000/svg">
<style>
.node { fill: #e1f5fe; stroke: #0277bd; stroke-width: 2; }
.node-text { font-family: Arial, sans-serif; font-size: 14px; text-anchor: middle; dominant-baseline: middle; }
.edge { stroke: #424242; stroke-width: 1.5; marker-end: url(#arrowhead); }
.title { font-family: Arial, sans-serif; font-size: 18px; font-weight: bold; text-anchor: middle; }
.layer-line { stroke: #e0e0e0; stroke-width: 1; stroke-dasharray: 5,5; }
</style>
<defs>
<marker id="arrowhead" markerWidth="10" markerHeight="7" refX="9" refY="3.5" orient="auto">
<polygon points="0 0, 10 3.5, 0 7" fill="#424242"/>
</marker>
</defs>
<text x="95" y="25" class="title">Tight Spacing</text><line x1="50" y1="50" x2="140" y2="50" class="layer-line" /><text x="15" y="45" class="node-text" style="fill: #757575; font-size: 12px;">Layer 0</text><line x1="50" y1="110" x2="140" y2="110" class="layer-line" /><text x="15" y="105" class="node-text" style="fill: #757575; font-size: 12px;">Layer 1</text><line x1="50" y1="170" x2="140" y2="170" class="layer-line" /><text x="15" y="165" class="node-text" style="fill: #757575; font-size: 12px;">Layer 2</text><line x1="50" y1="230" x2="140" y2="230" class="layer-line" /><text x="15" y="225" class="node-text" style="fill: #757575; font-size: 12px;">Layer 3</text><line x1="50" y1="290" x2="140" y2="290" class="layer-line" /><text x="15" y="285" class="node-text" style="fill: #757575; font-size: 12px;">Layer 4</text><line x1="80" y1="50" x2="65" y2="110" class="edge" /><line x1="80" y1="50" x2="95" y2="110" class="edge" /><line x1="65" y1="110" x2="50" y2="170" class="edge" /><line x1="65" y1="110" x2="80" y2="170" class="edge" /><line x1="95" y1="110" x2="80" y2="170" class="edge" /><line x1="95" y1="110" x2="110" y2="170" class="edge" /><line x1="50" y1="170" x2="65" y2="230" class="edge" /><line x1="80" y1="170" x2="65" y2="230" class="edge" /><line x1="80" y1="170" x2="95" y2="230" class="edge" /><line x1="110" y1="170" x2="95" y2="230" class="edge" /><line x1="65" y1="230" x2="80" y2="290" class="edge" /><line x1="95" y1="230" x2="80" y2="290" class="edge" /><circle cx="80" cy="290" r="20" class="node" /><text x="80" y="290" class="node-text">End</text><circle cx="95" cy="110" r="20" class="node" /><text x="95" y="110" class="node-text">A2</text><circle cx="80" cy="170" r="20" class="node" /><text x="80" y="170" class="node-text">B2</text><circle cx="110" cy="170" r="20" class="node" /><text x="110" y="170" class="node-text">B3</text><circle cx="65" cy="110" r="20" class="node" /><text x="65" y="110" class="node-text">A1</text><circle cx="80" cy="50" r="20" class="node" /><text x="80" y="50" class="node-text">Root</text><circle cx="95" cy="230" r="20" class="node" /><text x="95" y="230" class="node-text">C2</text><circle cx="65" cy="230" r="20" class="node" /><text x="65" y="230" class="node-text">C1</text><circle cx="50" cy="170" r="20" class="node" /><text x="50" y="170" class="node-text">B1</text><text x="10" y="390" class="node-text" style="fill: #757575; font-size: 12px;">Nodes: 9 | Layers: 5 | Size: 90×300</text></svg>