<?xml version="1.0" encoding="UTF-8"?>
<svg width="340" height="850" xmlns="http://www.w3.org/2000/svg">
<style>
.node { fill: #e1f5fe; stroke: #0277bd; stroke-width: 2; }
.node-text { font-family: Arial, sans-serif; font-size: 14px; text-anchor: middle; dominant-baseline: middle; }
.edge { stroke: #424242; stroke-width: 1.5; marker-end: url(#arrowhead); }
.title { font-family: Arial, sans-serif; font-size: 18px; font-weight: bold; text-anchor: middle; }
.layer-line { stroke: #e0e0e0; stroke-width: 1; stroke-dasharray: 5,5; }
</style>
<defs>
<marker id="arrowhead" markerWidth="10" markerHeight="7" refX="9" refY="3.5" orient="auto">
<polygon points="0 0, 10 3.5, 0 7" fill="#424242"/>
</marker>
</defs>
<text x="170" y="25" class="title">Wide Spacing</text><line x1="50" y1="50" x2="290" y2="50" class="layer-line" /><text x="15" y="45" class="node-text" style="fill: #757575; font-size: 12px;">Layer 0</text><line x1="50" y1="200" x2="290" y2="200" class="layer-line" /><text x="15" y="195" class="node-text" style="fill: #757575; font-size: 12px;">Layer 1</text><line x1="50" y1="350" x2="290" y2="350" class="layer-line" /><text x="15" y="345" class="node-text" style="fill: #757575; font-size: 12px;">Layer 2</text><line x1="50" y1="500" x2="290" y2="500" class="layer-line" /><text x="15" y="495" class="node-text" style="fill: #757575; font-size: 12px;">Layer 3</text><line x1="50" y1="650" x2="290" y2="650" class="layer-line" /><text x="15" y="645" class="node-text" style="fill: #757575; font-size: 12px;">Layer 4</text><line x1="130" y1="50" x2="90" y2="200" class="edge" /><line x1="130" y1="50" x2="170" y2="200" class="edge" /><line x1="90" y1="200" x2="50" y2="350" class="edge" /><line x1="90" y1="200" x2="130" y2="350" class="edge" /><line x1="170" y1="200" x2="130" y2="350" class="edge" /><line x1="170" y1="200" x2="210" y2="350" class="edge" /><line x1="50" y1="350" x2="90" y2="500" class="edge" /><line x1="130" y1="350" x2="90" y2="500" class="edge" /><line x1="130" y1="350" x2="170" y2="500" class="edge" /><line x1="210" y1="350" x2="170" y2="500" class="edge" /><line x1="90" y1="500" x2="130" y2="650" class="edge" /><line x1="170" y1="500" x2="130" y2="650" class="edge" /><circle cx="50" cy="350" r="20" class="node" /><text x="50" y="350" class="node-text">B1</text><circle cx="170" cy="500" r="20" class="node" /><text x="170" y="500" class="node-text">C2</text><circle cx="170" cy="200" r="20" class="node" /><text x="170" y="200" class="node-text">A2</text><circle cx="90" cy="200" r="20" class="node" /><text x="90" y="200" class="node-text">A1</text><circle cx="130" cy="50" r="20" class="node" /><text x="130" y="50" class="node-text">Root</text><circle cx="90" cy="500" r="20" class="node" /><text x="90" y="500" class="node-text">C1</text><circle cx="130" cy="650" r="20" class="node" /><text x="130" y="650" class="node-text">End</text><circle cx="210" cy="350" r="20" class="node" /><text x="210" y="350" class="node-text">B3</text><circle cx="130" cy="350" r="20" class="node" /><text x="130" y="350" class="node-text">B2</text><text x="10" y="840" class="node-text" style="fill: #757575; font-size: 12px;">Nodes: 9 | Layers: 5 | Size: 240×750</text></svg>