<?xml version="1.0" encoding="UTF-8"?>
<svg width="500" height="500" xmlns="http://www.w3.org/2000/svg">
<style>
.node { fill: #e1f5fe; stroke: #0277bd; stroke-width: 2; }
.node-text { font-family: Arial, sans-serif; font-size: 14px; text-anchor: middle; dominant-baseline: middle; }
.edge { stroke: #424242; stroke-width: 1.5; marker-end: url(#arrowhead); }
.title { font-family: Arial, sans-serif; font-size: 18px; font-weight: bold; text-anchor: middle; }
.layer-line { stroke: #e0e0e0; stroke-width: 1; stroke-dasharray: 5,5; }
</style>
<defs>
<marker id="arrowhead" markerWidth="10" markerHeight="7" refX="9" refY="3.5" orient="auto">
<polygon points="0 0, 10 3.5, 0 7" fill="#424242"/>
</marker>
</defs>
<text x="250" y="25" class="title">Wide Graph (Top-to-Bottom)</text><line x1="50" y1="50" x2="450" y2="50" class="layer-line" /><text x="15" y="45" class="node-text" style="fill: #757575; font-size: 12px;">Layer 0</text><line x1="50" y1="150" x2="450" y2="150" class="layer-line" /><text x="15" y="145" class="node-text" style="fill: #757575; font-size: 12px;">Layer 1</text><line x1="50" y1="250" x2="450" y2="250" class="layer-line" /><text x="15" y="245" class="node-text" style="fill: #757575; font-size: 12px;">Layer 2</text><line x1="50" y1="350" x2="450" y2="350" class="layer-line" /><text x="15" y="345" class="node-text" style="fill: #757575; font-size: 12px;">Layer 3</text><line x1="225" y1="50" x2="200" y2="150" class="edge" /><line x1="225" y1="50" x2="50" y2="150" class="edge" /><line x1="225" y1="50" x2="350" y2="150" class="edge" /><line x1="225" y1="50" x2="100" y2="150" class="edge" /><line x1="225" y1="50" x2="300" y2="150" class="edge" /><line x1="225" y1="50" x2="250" y2="150" class="edge" /><line x1="225" y1="50" x2="400" y2="150" class="edge" /><line x1="225" y1="50" x2="150" y2="150" class="edge" /><line x1="200" y1="150" x2="225" y2="250" class="edge" /><line x1="50" y1="150" x2="125" y2="250" class="edge" /><line x1="350" y1="150" x2="325" y2="250" class="edge" /><line x1="100" y1="150" x2="175" y2="250" class="edge" /><line x1="300" y1="150" x2="275" y2="250" class="edge" /><line x1="250" y1="150" x2="225" y2="250" class="edge" /><line x1="400" y1="150" x2="325" y2="250" class="edge" /><line x1="150" y1="150" x2="175" y2="250" class="edge" /><line x1="125" y1="250" x2="225" y2="350" class="edge" /><line x1="175" y1="250" x2="225" y2="350" class="edge" /><line x1="225" y1="250" x2="225" y2="350" class="edge" /><line x1="275" y1="250" x2="225" y2="350" class="edge" /><line x1="325" y1="250" x2="225" y2="350" class="edge" /><circle cx="225" cy="250" r="20" class="node" /><text x="225" y="250" class="node-text">L2-3</text><circle cx="350" cy="150" r="20" class="node" /><text x="350" y="150" class="node-text">L1-3</text><circle cx="275" cy="250" r="20" class="node" /><text x="275" y="250" class="node-text">L2-4</text><circle cx="225" cy="50" r="20" class="node" /><text x="225" y="50" class="node-text">Root</text><circle cx="175" cy="250" r="20" class="node" /><text x="175" y="250" class="node-text">L2-2</text><circle cx="300" cy="150" r="20" class="node" /><text x="300" y="150" class="node-text">L1-5</text><circle cx="250" cy="150" r="20" class="node" /><text x="250" y="150" class="node-text">L1-6</text><circle cx="225" cy="350" r="20" class="node" /><text x="225" y="350" class="node-text">End</text><circle cx="50" cy="150" r="20" class="node" /><text x="50" y="150" class="node-text">L1-2</text><circle cx="325" cy="250" r="20" class="node" /><text x="325" y="250" class="node-text">L2-5</text><circle cx="150" cy="150" r="20" class="node" /><text x="150" y="150" class="node-text">L1-8</text><circle cx="100" cy="150" r="20" class="node" /><text x="100" y="150" class="node-text">L1-4</text><circle cx="125" cy="250" r="20" class="node" /><text x="125" y="250" class="node-text">L2-1</text><circle cx="400" cy="150" r="20" class="node" /><text x="400" y="150" class="node-text">L1-7</text><circle cx="200" cy="150" r="20" class="node" /><text x="200" y="150" class="node-text">L1-1</text><text x="10" y="490" class="node-text" style="fill: #757575; font-size: 12px;">Nodes: 15 | Layers: 4 | Size: 400×400</text></svg>